<svg t="1696933186750" class="icon" viewBox="0 0 1024 1024" version="1.1" xmlns="http://www.w3.org/2000/svg" p-id="33634" width="200" height="200"><path d="M508.49 513.22m-446.33 0a446.33 446.33 0 1 0 892.66 0 446.33 446.33 0 1 0-892.66 0Z" fill="#4B74EA" p-id="33635"></path><path d="M536.56 264.2c-15.31-17.54-41.94-19.34-59.48-4.03-1.43 1.25-2.78 2.6-4.03 4.03-31.76 36.25-189.98 222.86-189.98 332.46 0 115.5 91.05 196.72 221.73 196.72s221.73-80.66 221.73-196.72c0-109.6-158.22-296.2-189.97-332.46z m-20.24 486.19V609.87l99.48-84.31c5.98-4.97 6.79-13.84 1.83-19.81-4.97-5.98-13.84-6.79-19.81-1.83l-81.5 68.29V402.75c0-7.76-6.29-14.05-14.05-14.05s-14.05 6.29-14.05 14.05v242.81l-75.88-68.01c-5.74-5.28-14.68-4.9-19.95 0.84-5.28 5.74-4.9 14.68 0.84 19.95l94.71 86.56v66.6c-91.33-5.9-163-60.14-163-153.44 0.28-100.61 179.86-306.04 179.86-306.04s179.58 205.43 179.58 304.64-74.48 149.51-168.06 153.73z" fill="#FFFFFF" p-id="33636"></path></svg>
